<svg width="62" height="25" viewBox="0 0 62 25" fill="none" xmlns="http://www.w3.org/2000/svg">
<path d="M2.872 24.224C2.21067 24.224 1.656 24 1.208 23.552C0.76 23.104 0.536 22.5493 0.536 21.888C0.536 21.2267 0.76 20.672 1.208 20.224C1.656 19.776 2.21067 19.552 2.872 19.552C3.512 19.552 4.056 19.776 4.504 20.224C4.952 20.672 5.176 21.2267 5.176 21.888C5.176 22.5493 4.952 23.104 4.504 23.552C4.056 24 3.512 24.224 2.872 24.224ZM25.2788 14.752C25.2788 15.4133 25.2361 16.0107 25.1508 16.544H11.6788C11.7854 17.952 12.3081 19.0827 13.2468 19.936C14.1854 20.7893 15.3374 21.216 16.7028 21.216C18.6654 21.216 20.0521 20.3947 20.8628 18.752H24.7987C24.2654 20.3733 23.2948 21.7067 21.8868 22.752C20.5001 23.776 18.7721 24.288 16.7028 24.288C15.0174 24.288 13.5028 23.9147 12.1588 23.168C10.8361 22.4 9.79075 21.3333 9.02275 19.968C8.27608 18.5813 7.90275 16.9813 7.90275 15.168C7.90275 13.3547 8.26542 11.7653 8.99075 10.4C9.73742 9.01333 10.7721 7.94667 12.0948 7.2C13.4388 6.45333 14.9748 6.08 16.7028 6.08C18.3668 6.08 19.8494 6.44267 21.1508 7.168C22.4521 7.89333 23.4654 8.91733 24.1908 10.24C24.9161 11.5413 25.2788 13.0453 25.2788 14.752ZM21.4708 13.6C21.4494 12.256 20.9694 11.1787 20.0308 10.368C19.0921 9.55733 17.9294 9.152 16.5428 9.152C15.2841 9.152 14.2068 9.55733 13.3108 10.368C12.4148 11.1573 11.8814 12.2347 11.7108 13.6H21.4708ZM32.5168 0.32V24H28.8688V0.32H32.5168ZM40.9543 0.32V24H37.3063V0.32H40.9543ZM61.9038 14.752C61.9038 15.4133 61.8611 16.0107 61.7758 16.544H48.3038C48.4104 17.952 48.9331 19.0827 49.8718 19.936C50.8104 20.7893 51.9624 21.216 53.3278 21.216C55.2904 21.216 56.6771 20.3947 57.4878 18.752H61.4237C60.8904 20.3733 59.9198 21.7067 58.5118 22.752C57.1251 23.776 55.3971 24.288 53.3278 24.288C51.6424 24.288 50.1278 23.9147 48.7838 23.168C47.4611 22.4 46.4158 21.3333 45.6478 19.968C44.9011 18.5813 44.5278 16.9813 44.5278 15.168C44.5278 13.3547 44.8904 11.7653 45.6158 10.4C46.3624 9.01333 47.3971 7.94667 48.7198 7.2C50.0638 6.45333 51.5998 6.08 53.3278 6.08C54.9918 6.08 56.4744 6.44267 57.7758 7.168C59.0771 7.89333 60.0904 8.91733 60.8158 10.24C61.5411 11.5413 61.9038 13.0453 61.9038 14.752ZM58.0958 13.6C58.0744 12.256 57.5944 11.1787 56.6558 10.368C55.7171 9.55733 54.5544 9.152 53.1678 9.152C51.9091 9.152 50.8318 9.55733 49.9358 10.368C49.0398 11.1573 48.5064 12.2347 48.3358 13.6H58.0958Z" fill="#1B181A"/>
</svg>
